<svg width="24" height="24" viewBox="0 0 24 24" fill="none" xmlns="http://www.w3.org/2000/svg">
<path d="M8.76999 14.43L10.38 15.15C11.41 15.61 12.59 15.61 13.63 15.15L15.24 14.43C16.68 13.79 18.01 15.53 17.01 16.75L13.55 20.98C12.7 22.02 11.31 22.02 10.45 20.98L6.99999 16.75C5.98999 15.53 7.31999 13.79 8.76999 14.43Z" fill="#3A6FF8"/>
<path d="M8.56999 11.67C8.26999 11.89 8.31 12.35 8.65 12.52L11 13.69C11.55 13.97 12.44 13.97 12.98 13.69L15.33 12.52C15.66 12.35 15.7 11.9 15.41 11.67L12.3 9.33C12.12 9.2 11.88 9.2 11.7 9.33L8.56999 11.67Z" fill="#3A6FF8"/>
<path d="M17.88 8.23999L13.71 3.03999C13.63 2.93999 13.54 2.84999 13.45 2.75999C13.19 2.50999 12.82 2.73999 12.82 3.09999V7.39999C12.82 7.55999 12.89 7.70999 13.02 7.79999L17.17 10.92L17.35 11.05C17.53 11.18 17.78 11.18 17.93 11.02C18.63 10.26 18.62 9.15999 17.88 8.23999Z" fill="#3A6FF8"/>
<path d="M6.11001 8.33L10.26 3.05C10.34 2.95 10.42 2.86 10.51 2.77C10.77 2.52 11.14 2.74 11.14 3.11V7.48C11.14 7.64 11.07 7.78 10.94 7.88L6.81001 11.05L6.64001 11.18C6.46001 11.31 6.21001 11.31 6.05001 11.14C5.37001 10.37 5.38001 9.27 6.11001 8.33Z" fill="#3A6FF8"/>
</svg>
