<svg width="44" height="44" viewBox="0 0 44 44" fill="none" xmlns="http://www.w3.org/2000/svg">
<rect width="44" height="44" rx="10" fill="#31353F"/>
<path d="M22 12C16.48 12 12 16.48 12 22C12 27.52 16.48 32 22 32C27.52 32 32 27.52 32 22C32 16.48 27.52 12 22 12ZM25.82 26.32C25.73 26.8 25.32 27.14 24.84 27.14H19.3C18.64 27.14 18.16 26.5 18.34 25.87L19.18 22.92L17.47 23.26C17.42 23.27 17.37 23.27 17.32 23.27C16.97 23.27 16.66 23.02 16.59 22.67C16.51 22.26 16.77 21.87 17.18 21.79L19.65 21.3L20.96 16.73C21.02 16.52 21.22 16.37 21.44 16.37H22.8C23.46 16.37 23.94 16.99 23.77 17.63L22.96 20.64L24.89 20.25C25.29 20.17 25.69 20.43 25.77 20.84C25.85 21.25 25.59 21.64 25.18 21.72L22.52 22.25L21.97 24.3H25C25.62 24.3 26.09 24.86 25.98 25.48L25.82 26.32Z" fill="#64CFF9"/>
</svg>
